#N canvas 659 129 647 488 12;
#X obj 69 93 mtof;
#X obj 166 360 *~;
#X obj 73 330 lop~ 5000;
#N canvas 0 25 663 508 attack_release_env 0;
#X obj 223 363 line~;
#X obj 302 269 pack 0 400;
#X floatatom 361 242 5 0 0 0 - - -;
#X text 396 242 attack;
#X obj 210 74 sel 0;
#X obj 238 116 / 127;
#X msg 201 117 0;
#X floatatom 173 235 5 0 0 0 - - -;
#X text 208 235 release;
#X obj 223 401 *~;
#X obj 210 41 inlet;
#X obj 223 422 outlet~;
#X obj 111 258 pack 0 3000;
#X connect 0 0 9 0;
#X connect 0 0 9 1;
#X connect 1 0 0 0;
#X connect 2 0 1 1;
#X connect 4 0 6 0;
#X connect 4 1 5 0;
#X connect 5 0 1 0;
#X connect 6 0 12 0;
#X connect 7 0 12 1;
#X connect 9 0 11 0;
#X connect 10 0 4 0;
#X connect 12 0 0 0;
#X restore 293 280 pd attack_release_env;
#N canvas 488 28 952 789 string_osc 0;
#X obj 47 13 inlet;
#X obj 44 235 phasor~;
#X obj 44 284 expr~ $v1 > $v2;
#X obj 226 268 +~ 0.5;
#X obj 44 305 *~ 0.25;
#X floatatom 37 94 5 0 0 0 - - -;
#X obj 226 247 *~ 0.3;
#X obj 46 202 +~;
#X obj 42 147 sig~;
#X obj 226 225 osc~ 1.864;
#X obj 87 148 osc~ 5;
#X obj 87 168 *~ 2;
#X obj 95 76 * 0.01;
#X obj 94 103 + 1;
#X obj 236 104 loadbang;
#X obj 236 125 random 1000;
#X obj 236 167 + 1;
#X obj 236 147 * 0.002;
#X obj 43 341 outlet~;
#X floatatom 93 124 5 0 0 0 - - -;
#X obj 178 65 bng 15 250 50 0 empty empty empty 17 7 0 10 -262144 -1
-1;
#X connect 0 0 5 0;
#X connect 0 0 12 0;
#X connect 0 0 20 0;
#X connect 1 0 2 0;
#X connect 2 0 4 0;
#X connect 3 0 2 1;
#X connect 4 0 18 0;
#X connect 5 0 8 0;
#X connect 6 0 3 0;
#X connect 7 0 1 0;
#X connect 8 0 7 0;
#X connect 9 0 6 0;
#X connect 10 0 11 0;
#X connect 11 0 7 1;
#X connect 12 0 13 0;
#X connect 13 0 19 0;
#X connect 14 0 15 0;
#X connect 15 0 17 0;
#X connect 16 0 9 0;
#X connect 17 0 16 0;
#X connect 19 0 10 0;
#X connect 20 0 15 0;
#X restore 53 145 pd string_osc;
#X obj 124 280 * 10;
#N canvas 0 23 952 854 string_osc 0;
#X obj 37 37 inlet;
#X obj 44 235 phasor~;
#X obj 44 284 expr~ $v1 > $v2;
#X obj 226 268 +~ 0.5;
#X obj 44 305 *~ 0.25;
#X floatatom 37 94 5 0 0 0 - - -;
#X obj 226 247 *~ 0.3;
#X obj 46 202 +~;
#X obj 42 147 sig~;
#X obj 226 225 osc~ 1.864;
#X obj 87 148 osc~ 5;
#X obj 87 168 *~ 2;
#X obj 94 109 + 1;
#X obj 236 104 loadbang;
#X obj 236 125 random 1000;
#X obj 236 167 + 1;
#X obj 236 147 * 0.002;
#X obj 44 326 outlet~;
#X obj 95 76 * 0.011;
#X connect 0 0 5 0;
#X connect 0 0 18 0;
#X connect 1 0 2 0;
#X connect 2 0 4 0;
#X connect 3 0 2 1;
#X connect 4 0 17 0;
#X connect 5 0 8 0;
#X connect 6 0 3 0;
#X connect 7 0 1 0;
#X connect 8 0 7 0;
#X connect 9 0 6 0;
#X connect 10 0 11 0;
#X connect 11 0 7 1;
#X connect 12 0 10 0;
#X connect 13 0 14 0;
#X connect 14 0 16 0;
#X connect 15 0 9 0;
#X connect 16 0 15 0;
#X connect 18 0 12 0;
#X restore 163 151 pd string_osc;
#X obj 171 116 * 1.0045;
#X obj 176 406 *~;
#X obj 216 373 vline~;
#X obj 274 206 bng 15 250 50 0 empty empty empty 17 7 0 10 -262144
-1 -1;
#X msg 249 335 1 0 \, 0 1000 950;
#X obj 81 -1 inlet;
#X floatatom 80 26 5 0 0 0 - - -;
#X obj 172 442 outlet~;
#X connect 0 0 4 0;
#X connect 0 0 5 0;
#X connect 0 0 7 0;
#X connect 1 0 8 0;
#X connect 2 0 1 0;
#X connect 3 0 1 1;
#X connect 4 0 2 0;
#X connect 5 0 2 1;
#X connect 6 0 2 0;
#X connect 7 0 6 0;
#X connect 8 0 14 0;
#X connect 9 0 8 1;
#X connect 10 0 11 0;
#X connect 11 0 9 0;
#X connect 12 0 13 0;
#X connect 13 0 10 0;
#X connect 13 0 0 0;
#X connect 13 0 3 0;
