#N canvas 414 255 1122 616 10;
#X floatatom 111 151 5 0 0 0 - - -;
#X obj 111 125 tabread \$1;
#X obj 209 30 + 29;
#X obj 231 -28 r \$1-middle;
#X floatatom 231 -4 5 0 0 0 - - -;
#X obj 111 245 makenote 1 10;
#X obj 111 275 poly 3 1, f 12;
#X obj 114 357 route 1 2 3, f 40;
#X obj 45 92 spigot;
#X obj 76 69 tgl 15 0 empty empty empty 17 7 0 10 -262144 -1 -1 1 1
;
#X obj 111 98 spigot;
#X obj 50 -76 loadbang;
#X obj 50 -33 select 0;
#X text 512 -76 switch between mtof and table-based scale;
#X obj 45 117 mtof;
#X obj 157 -67 snapshot~;
#X obj 179 -90 bang~;
#X obj 157 28 change;
#X obj 144 76 tgl 15 0 empty empty empty 17 7 0 10 -262144 -1 -1 0
1;
#X obj 50 -55 list store \$1;
#X obj 45 71 abs;
#X obj 144 52 t b;
#X obj 111 303 pack f f f;
#X text 475 189 default to max velocity until signal received;
#X obj 322 -50 snapshot~;
#X obj 344 -77 bang~;
#X obj 322 -26 change;
#X text 474 163 first attempt: take midi velocity as a message;
#N canvas 768 75 450 300 pencon 0;
#X obj 68 164 osc~;
#X obj 70 190 *~ 0.2;
#X obj 79 236 *~, f 10;
#X obj 25 188 osc~;
#X obj 22 162 * 1.3;
#X obj 25 209 *~ 0.01;
#X obj 23 24 inlet;
#X obj 79 273 outlet~;
#X obj 193 196 vline~;
#X obj 23 63 unpack f f, f 20;
#X obj 21 97 stripnote;
#X obj 21 131 t f f f, f 10;
#X obj 127 191 osc~;
#X obj 279 151 expr $f1 + $f2;
#X floatatom 360 120 5 0 0 0 - - -;
#X obj 357 77 inlet;
#X msg 167 115 1 10 \, 0 400 1000;
#X connect 0 0 1 0;
#X connect 1 0 2 0;
#X connect 2 0 7 0;
#X connect 3 0 5 0;
#X connect 4 0 3 0;
#X connect 5 0 2 0;
#X connect 6 0 9 0;
#X connect 8 0 2 1;
#X connect 9 0 10 0;
#X connect 9 1 10 1;
#X connect 10 0 11 0;
#X connect 10 1 16 0;
#X connect 11 0 4 0;
#X connect 11 1 0 0;
#X connect 11 2 13 0;
#X connect 12 0 2 0;
#X connect 13 0 12 0;
#X connect 14 0 13 1;
#X connect 15 0 14 0;
#X connect 16 0 8 0;
#X restore 193 391 pd pencon;
#X obj 328 140 > 0;
#X obj 48 214 f;
#X obj 47 192 spigot;
#X obj 356 72 loadbang;
#X msg 356 96 1;
#X floatatom 244 -73 5 0 0 0 - - -;
#X text 473 260 problem: switch between 0-1 and 0-127?;
#X text 472 283 if velocity above 1 received \, set scale;
#X obj 271 124 > 1;
#X obj 271 148 sel 1;
#X obj 178 194 / 1, f 16;
#X msg 271 172 127;
#X obj 355 186 sel 1;
#X obj 328 163 t f f;
#X obj 356 209 tgl 15 0 empty empty empty 17 7 0 10 -262144 -1 -1 1
1;
#X obj 356 229 * 2;
#X obj 356 250 - 1;
#X floatatom 356 271 5 0 0 0 - - -;
#X obj 157 5 *, f 5;
#X obj 156 -41 t f b;
#X obj 182 -18 f;
#X obj 181 446 outlet~;
#N canvas 768 75 450 300 pencon 1;
#X obj 68 164 osc~;
#X obj 70 190 *~ 0.2;
#X obj 79 236 *~, f 10;
#X obj 25 188 osc~;
#X obj 22 162 * 1.3;
#X obj 25 209 *~ 0.01;
#X obj 23 24 inlet;
#X obj 79 273 outlet~;
#X obj 193 196 vline~;
#X obj 23 63 unpack f f, f 20;
#X msg 167 115 \$1 10 \, 0 400 10;
#X obj 21 97 stripnote;
#X obj 21 131 t f f f, f 10;
#X obj 127 191 osc~;
#X obj 279 151 expr $f1 + $f2;
#X floatatom 360 120 5 0 0 0 - - -;
#X obj 357 77 inlet;
#X connect 0 0 1 0;
#X connect 1 0 2 0;
#X connect 2 0 7 0;
#X connect 3 0 5 0;
#X connect 4 0 3 0;
#X connect 5 0 2 0;
#X connect 6 0 9 0;
#X connect 8 0 2 1;
#X connect 9 0 11 0;
#X connect 9 1 11 1;
#X connect 10 0 8 0;
#X connect 11 0 12 0;
#X connect 11 1 10 0;
#X connect 12 0 4 0;
#X connect 12 1 0 0;
#X connect 12 2 14 0;
#X connect 13 0 2 0;
#X connect 14 0 13 0;
#X connect 15 0 14 1;
#X connect 16 0 15 0;
#X restore 113 394 pd pencon;
#N canvas 768 75 450 300 pencon 0;
#X obj 68 164 osc~;
#X obj 70 190 *~ 0.2;
#X obj 79 236 *~, f 10;
#X obj 25 188 osc~;
#X obj 22 162 * 1.3;
#X obj 25 209 *~ 0.01;
#X obj 23 24 inlet;
#X obj 79 273 outlet~;
#X obj 193 196 vline~;
#X obj 23 63 unpack f f, f 20;
#X obj 21 97 stripnote;
#X obj 21 131 t f f f, f 10;
#X obj 127 191 osc~;
#X obj 279 151 expr $f1 + $f2;
#X floatatom 360 120 5 0 0 0 - - -;
#X obj 357 77 inlet;
#X msg 167 115 1 10 \, 0 400 100;
#X connect 0 0 1 0;
#X connect 1 0 2 0;
#X connect 2 0 7 0;
#X connect 3 0 5 0;
#X connect 4 0 3 0;
#X connect 5 0 2 0;
#X connect 6 0 9 0;
#X connect 8 0 2 1;
#X connect 9 0 10 0;
#X connect 9 1 10 1;
#X connect 10 0 11 0;
#X connect 10 1 16 0;
#X connect 11 0 4 0;
#X connect 11 1 0 0;
#X connect 11 2 13 0;
#X connect 12 0 2 0;
#X connect 13 0 12 0;
#X connect 14 0 13 1;
#X connect 15 0 14 0;
#X connect 16 0 8 0;
#X restore 265 401 pd pencon;
#X obj 414 261 vsl 15 128 0 500 0 0 empty empty empty 0 -9 0 10 -262144
-1 -1 0 1;
#X obj 414 219 inlet;
#X obj 156 -114 inlet fwd pitch;
#X obj 322 -110 inlet fwd velocity;
#X connect 0 0 5 0;
#X connect 1 0 0 0;
#X connect 2 0 1 0;
#X connect 3 0 4 0;
#X connect 4 0 2 1;
#X connect 5 0 6 0;
#X connect 5 1 6 1;
#X connect 6 0 22 0;
#X connect 6 1 22 1;
#X connect 6 2 22 2;
#X connect 7 0 51 0;
#X connect 7 1 28 0;
#X connect 7 2 52 0;
#X connect 8 0 14 0;
#X connect 9 0 8 1;
#X connect 10 0 1 0;
#X connect 11 0 19 0;
#X connect 12 0 9 0;
#X connect 12 1 21 0;
#X connect 14 0 31 0;
#X connect 15 0 48 0;
#X connect 16 0 15 0;
#X connect 17 0 10 0;
#X connect 17 0 20 0;
#X connect 18 0 10 1;
#X connect 19 0 12 0;
#X connect 20 0 8 0;
#X connect 21 0 18 0;
#X connect 22 0 7 0;
#X connect 24 0 26 0;
#X connect 25 0 24 0;
#X connect 26 0 29 0;
#X connect 26 0 37 0;
#X connect 26 0 39 0;
#X connect 28 0 50 0;
#X connect 29 0 42 0;
#X connect 30 0 5 0;
#X connect 31 0 30 0;
#X connect 32 0 33 0;
#X connect 33 0 29 0;
#X connect 37 0 38 0;
#X connect 38 0 40 0;
#X connect 39 0 5 1;
#X connect 40 0 39 1;
#X connect 41 0 43 0;
#X connect 42 0 31 1;
#X connect 42 1 41 0;
#X connect 43 0 44 0;
#X connect 44 0 45 0;
#X connect 45 0 46 0;
#X connect 46 0 49 1;
#X connect 47 0 17 0;
#X connect 48 0 47 0;
#X connect 48 1 49 0;
#X connect 49 0 47 1;
#X connect 51 0 50 0;
#X connect 52 0 50 0;
#X connect 53 0 52 1;
#X connect 53 0 28 1;
#X connect 53 0 51 1;
#X connect 54 0 53 0;
#X connect 55 0 15 0;
#X connect 56 0 24 0;
#X coords 0 -1 1 1 15 15 1 0 800;
