#N canvas 246 182 894 470 12;
#X obj -213 321 main_woodwind_module;
#X obj 142 284 bowed_strings;
#X obj 502 284 plucked_strings;
#X obj 358 282 main_vocal_nodule;
#X obj 79 6 key;
#X floatatom 63 32 5 0 0 0 - - -;
#X obj -42 11 key_selector;
#X obj 44 207 woodwind_MIDI;
#X obj 144 210 violin_MIDI;
#X obj 242 211 cello_MIDI;
#X obj 334 211 vocal_MIDI;
#X obj 425 211 harp_MIDI;
#X obj 517 66 bng 15 250 50 0 empty empty empty 17 7 0 10 -262144 -1
-1;
#X floatatom 24 251 5 0 0 0 - - -;
#X floatatom 244 242 5 0 0 0 - - -;
#X floatatom 334 237 5 0 0 0 - - -;
#X floatatom 425 240 5 0 0 0 - - -;
#X floatatom 145 243 5 0 0 0 - - -;
#X obj 360 66 hsl 128 15 0 5 0 0 empty empty empty -2 -8 0 10 -262144
-1 -1 0 1;
#X obj 251 285 bowed_strings;
#X obj -122 182 loadbang;
#X msg -122 206 0;
#X obj 546 65 bng 15 250 50 0 empty empty empty 17 7 0 10 -262144 -1
-1;
#X obj -62 206 clarinet_MIDI;
#X obj -32 323 main_woodwind_module;
#X floatatom -59 245 5 0 0 0 - - -;
#X obj 611 63 bng 15 250 50 0 empty empty empty 17 7 0 10 -262144 -1
-1;
#X obj 572 65 bng 15 250 50 0 empty empty empty 17 7 0 10 -262144 -1
-1;
#X floatatom -41 38 5 0 0 0 - - -;
#X obj 90 156 instument_selection;
#X obj 199 68 tgl 15 0 empty empty empty 17 7 0 10 -262144 -1 -1 0
1;
#X obj 237 70 tgl 15 0 empty empty empty 17 7 0 10 -262144 -1 -1 0
1;
#X obj 278 70 tgl 15 0 empty empty empty 17 7 0 10 -262144 -1 -1 0
1;
#X obj 322 69 tgl 15 0 empty empty empty 17 7 0 10 -262144 -1 -1 0
1;
#X obj 67 72 expr $f1 + 25;
#X obj 496 147 expr $f1 + 5;
#X obj 161 429 dac~;
#X obj 162 381 lop~;
#X obj 645 60 hsl 128 15 0 300 0 0 empty empty empty -2 -8 0 10 -262144
-1 -1 12700 1;
#X obj 206 430 writesf~ 2;
#X msg 247 367 open DEBBIE_RECORD.wav;
#X msg 464 369 start;
#X msg 416 369 stop;
#X obj 795 57 bng 15 250 50 0 empty empty empty 17 7 0 10 -262144 -1
-1;
#X obj 822 57 bng 15 250 50 0 empty empty empty 17 7 0 10 -262144 -1
-1;
#X obj 847 58 bng 15 250 50 0 empty empty empty 17 7 0 10 -262144 -1
-1;
#X obj 195 26 inlet;
#X obj 245 24 inlet;
#X obj 292 24 inlet;
#X obj 341 23 inlet;
#X obj 392 23 inlet;
#X obj 492 18 inlet;
#X obj 539 18 inlet;
#X obj 590 16 inlet;
#X obj 639 16 inlet;
#X obj 687 23 inlet;
#X obj 781 24 inlet;
#X obj 828 23 inlet;
#X obj 875 23 inlet;
#X obj 686 296 outlet;
#X floatatom 686 270 5 0 0 0 - - -;
#X obj 428 405 recording_blink;
#X obj 428 431 outlet;
#X obj 503 233 inlet;
#X connect 0 0 37 0;
#X connect 1 0 37 0;
#X connect 2 0 37 0;
#X connect 3 0 37 0;
#X connect 4 0 5 0;
#X connect 5 0 6 0;
#X connect 5 0 29 0;
#X connect 6 0 28 0;
#X connect 7 0 13 0;
#X connect 8 0 17 0;
#X connect 9 0 14 0;
#X connect 10 0 15 0;
#X connect 11 0 16 0;
#X connect 12 0 8 0;
#X connect 12 0 9 0;
#X connect 13 0 0 0;
#X connect 13 0 60 0;
#X connect 14 0 19 0;
#X connect 14 0 60 0;
#X connect 15 0 3 0;
#X connect 15 0 60 0;
#X connect 16 0 2 0;
#X connect 16 0 60 0;
#X connect 17 0 1 0;
#X connect 17 0 60 0;
#X connect 18 0 0 2;
#X connect 18 0 24 2;
#X connect 19 0 37 0;
#X connect 20 0 21 0;
#X connect 21 0 13 0;
#X connect 21 0 17 0;
#X connect 21 0 14 0;
#X connect 21 0 15 0;
#X connect 21 0 16 0;
#X connect 21 0 25 0;
#X connect 22 0 7 0;
#X connect 22 0 23 0;
#X connect 23 0 25 0;
#X connect 24 0 37 0;
#X connect 25 0 24 0;
#X connect 25 0 60 0;
#X connect 26 0 11 0;
#X connect 27 0 10 0;
#X connect 28 0 34 0;
#X connect 28 0 60 0;
#X connect 29 0 0 0;
#X connect 29 1 1 0;
#X connect 29 2 3 1;
#X connect 29 3 35 0;
#X connect 30 0 29 2;
#X connect 31 0 29 3;
#X connect 32 0 29 4;
#X connect 33 0 29 5;
#X connect 34 0 29 1;
#X connect 35 0 2 0;
#X connect 37 0 36 0;
#X connect 37 0 36 1;
#X connect 37 0 39 0;
#X connect 37 0 39 1;
#X connect 38 0 37 1;
#X connect 40 0 39 0;
#X connect 41 0 39 0;
#X connect 41 0 61 1;
#X connect 42 0 39 0;
#X connect 42 0 61 0;
#X connect 43 0 40 0;
#X connect 44 0 41 0;
#X connect 45 0 42 0;
#X connect 46 0 30 0;
#X connect 47 0 31 0;
#X connect 48 0 32 0;
#X connect 49 0 33 0;
#X connect 50 0 18 0;
#X connect 51 0 12 0;
#X connect 52 0 22 0;
#X connect 53 0 27 0;
#X connect 54 0 26 0;
#X connect 55 0 38 0;
#X connect 56 0 43 0;
#X connect 57 0 44 0;
#X connect 58 0 45 0;
#X connect 60 0 59 0;
#X connect 61 0 62 0;
#X connect 63 0 3 2;
