#N canvas 0 49 1440 847 12;
#X obj 89 23 loadbang;
#X floatatom 89 75 5 0 0 0 - - -;
#X obj 231 27 r~ vibrato;
#X obj 203 71 *~;
#X obj 201 104 osc~;
#X obj 201 135 s~ modular;
#X obj 21 139 r~ vibrato;
#X obj 22 235 +~;
#X obj 57 163 r~ modular;
#X obj 57 198 *~;
#X floatatom 93 245 5 0 0 0 - - -;
#X obj 92 212 *;
#X obj 133 184 line;
#X obj 52 296 +~;
#X obj 52 334 osc~;
#X obj 77 389 *~;
#X obj 106 334 line;
#X obj 105 304 r f1amp;
#X obj 200 168 r~ vibrato;
#X obj 201 264 +~;
#X obj 236 192 r~ modular;
#X obj 236 227 *~;
#X floatatom 268 267 5 0 0 0 - - -;
#X obj 267 233 *;
#X obj 312 213 line;
#X obj 231 325 +~;
#X obj 231 363 osc~;
#X obj 231 395 *~;
#X obj 285 363 line;
#X obj 375 167 r~ vibrato;
#X obj 376 263 +~;
#X obj 411 191 r~ modular;
#X obj 411 226 *~;
#X floatatom 446 269 5 0 0 0 - - -;
#X obj 442 232 *;
#X obj 487 212 line;
#X obj 406 324 +~;
#X obj 406 362 osc~;
#X obj 406 394 *~;
#X obj 460 362 line;
#X obj 546 159 r~ vibrato;
#X obj 547 255 +~;
#X obj 582 183 r~ modular;
#X obj 582 218 *~;
#X floatatom 614 258 5 0 0 0 - - -;
#X obj 613 240 *;
#X obj 658 204 line;
#X obj 577 316 +~;
#X obj 577 354 osc~;
#X obj 577 386 *~;
#X obj 631 354 line;
#X obj 721 160 r~ vibrato;
#X obj 722 256 +~;
#X obj 757 184 r~ modular;
#X obj 757 219 *~;
#X floatatom 789 259 5 0 0 0 - - -;
#X obj 788 232 *;
#X obj 833 205 line;
#X obj 752 317 +~;
#X obj 752 355 osc~;
#X obj 752 387 *~;
#X obj 806 355 line;
#X obj 885 156 r~ vibrato;
#X obj 886 252 +~;
#X obj 921 180 r~ modular;
#X obj 921 215 *~;
#X floatatom 953 255 5 0 0 0 - - -;
#X obj 952 221 *;
#X obj 997 201 line;
#X obj 916 313 +~;
#X obj 916 351 osc~;
#X obj 916 383 *~;
#X obj 970 351 line;
#X obj 284 333 r f2amp;
#X obj 313 165 r f2;
#X obj 488 164 r f3;
#X obj 459 332 r f3amp;
#X obj 659 156 r f4;
#X obj 630 324 r f4amp;
#X obj 805 306 r f5amp;
#X obj 968 321 r f6amp;
#X obj 834 157 r f5;
#X obj 998 153 r f6;
#X obj 143 439 +~;
#X obj 143 474 +~;
#X obj 142 503 +~;
#X obj 445 444 +~;
#X obj 824 466 +~;
#X obj 133 580 dac~, f 6;
#X obj 753 14 noise~;
#X obj 755 72 samphold~;
#X obj 684 16 osc~ 2;
#X obj 684 70 +~;
#X obj 684 101 *~ 2;
#X obj 684 127 s~ vibrato;
#X obj 782 97 line;
#X obj 954 91 bng 15 250 50 0 empty empty empty 17 7 0 10 -262144 -1
-1;
#X msg 954 111 0;
#X obj 1127 32 bng 15 250 50 0 empty empty empty 17 7 0 10 -262144
-1 -1;
#X msg 1205 94 \; f1amp 0.19 \; f2amp 0.09 \; f3amp 0.08 \; f4amp 0.08
\; f5amp 0.07 \; f6amp 0.07 \;;
#X msg 1108 213 \; f1 1 \; f2 2 \; f3 11 \; f4 13 \; f5 12 \; f6 0
\;;
#X obj 1175 190 bng 15 250 50 0 empty empty empty 17 7 0 10 -262144
-1 -1;
#X obj 1177 318 bng 15 250 50 0 empty empty empty 17 7 0 10 -262144
-1 -1;
#X obj 1177 432 bng 15 250 50 0 empty empty empty 17 7 0 10 -262144
-1 -1;
#X obj 1176 558 bng 15 250 50 0 empty empty empty 17 7 0 10 -262144
-1 -1;
#X obj 927 746 sel 0 1 2 3 4 5;
#X msg 648 686 \; f1 0 \; f2 0 \; f3 0 \; f4 0 \; f5 0 \; f6 0 \;;
#X msg 745 687 \; f1amp 0 \; f2amp 0 \; f3amp 0 \; f4amp 0 \; f5amp
0 \; f6amp 0 \;;
#X obj 715 670 bng 15 250 50 0 empty empty empty 17 7 0 10 -262144
-1 -1;
#X obj 927 715 % 7;
#X obj 926 667 + 1, f 4;
#X floatatom 926 691 5 0 0 0 - - -;
#X obj 925 637 f 0;
#X msg 989 663 6;
#X obj 975 692 sel 0;
#X obj 924 565 tgl 15 0 empty empty empty 17 7 0 10 -262144 -1 -1 0
1;
#X msg 1108 338 \; f1 1 \; f2 6 \; f3 2 \; f4 5 \; f5 4 \; f6 0 \;
;
#X msg 1109 461 \; f1 1 \; f2 2 \; f3 3 \; f4 11 \; f5 4 \; f6 0 \;
;
#X msg 1110 580 \; f1 4 \; f2 2 \; f3 1 \; f4 3 \; f5 0 \; f6 0 \;
;
#X msg 1205 215 \; f1amp 0.19 \; f2amp 0.09 \; f3amp 0.08 \; f4amp
0.08 \; f5amp 0.07 \; f6amp 0 \;;
#X msg 1205 340 \; f1amp 0.19 \; f2amp 0.09 \; f3amp 0.08 \; f4amp
0.08 \; f5amp 0.08 \; f6amp 0 \;;
#X msg 1206 463 \; f1amp 0.19 \; f2amp 0.09 \; f3amp 0.08 \; f4amp
0.08 \; f5amp 0.07 \; f6amp 0 \;;
#X msg 1207 582 \; f1amp 0.19 \; f2amp 0.09 \; f3amp 0.08 \; f4amp
0.08 \; f5amp 0 \; f6amp 0 \;;
#X obj 141 552 *~ 0.8;
#X obj 825 18 phasor~ 25;
#X obj 134 136 r f1;
#X obj 142 528 lop~;
#X obj 252 527 hsl 128 15 10 1000 1 0 empty empty empty -2 -8 0 10
-262144 -1 -1 5100 1;
#X floatatom 244 567 5 0 0 0 - - -;
#X obj 804 332 nbx 5 14 -1e+37 1e+37 0 0 empty empty empty 0 -8 0 10
-262144 -1 -1 0 256;
#X msg 838 63 0 \, 2 100;
#X msg 89 47 110;
#X msg 1113 85 \; f1 2 \; f2 1 \; f3 1 \; f4 2 \; f5 1 \; f6 3 \;;
#X obj 923 603 metro 1000;
#X obj 714 624 key;
#X connect 0 0 131 0;
#X connect 1 0 3 0;
#X connect 1 0 11 1;
#X connect 1 0 23 1;
#X connect 1 0 34 1;
#X connect 1 0 45 1;
#X connect 1 0 67 1;
#X connect 1 0 56 1;
#X connect 2 0 3 0;
#X connect 3 0 4 0;
#X connect 4 0 5 0;
#X connect 6 0 7 0;
#X connect 7 0 13 0;
#X connect 8 0 9 0;
#X connect 9 0 7 1;
#X connect 10 0 9 1;
#X connect 10 0 13 1;
#X connect 11 0 10 0;
#X connect 12 0 11 0;
#X connect 13 0 14 0;
#X connect 14 0 15 0;
#X connect 15 0 83 0;
#X connect 16 0 15 1;
#X connect 17 0 16 0;
#X connect 18 0 19 0;
#X connect 19 0 25 0;
#X connect 20 0 21 0;
#X connect 21 0 19 1;
#X connect 22 0 21 1;
#X connect 22 0 25 1;
#X connect 23 0 22 0;
#X connect 24 0 23 0;
#X connect 25 0 26 0;
#X connect 26 0 27 0;
#X connect 27 0 83 1;
#X connect 28 0 27 1;
#X connect 29 0 30 0;
#X connect 30 0 36 0;
#X connect 31 0 32 0;
#X connect 32 0 30 1;
#X connect 33 0 32 1;
#X connect 33 0 36 1;
#X connect 34 0 33 0;
#X connect 35 0 34 0;
#X connect 36 0 37 0;
#X connect 37 0 38 0;
#X connect 38 0 86 0;
#X connect 39 0 38 1;
#X connect 40 0 41 0;
#X connect 41 0 47 0;
#X connect 42 0 43 0;
#X connect 43 0 41 1;
#X connect 44 0 43 1;
#X connect 44 0 47 1;
#X connect 45 0 44 0;
#X connect 46 0 45 0;
#X connect 47 0 48 0;
#X connect 48 0 49 0;
#X connect 49 0 86 1;
#X connect 50 0 49 1;
#X connect 51 0 52 0;
#X connect 52 0 58 0;
#X connect 53 0 54 0;
#X connect 54 0 52 1;
#X connect 55 0 54 1;
#X connect 55 0 58 1;
#X connect 56 0 55 0;
#X connect 57 0 56 0;
#X connect 58 0 59 0;
#X connect 59 0 60 0;
#X connect 60 0 87 0;
#X connect 61 0 60 1;
#X connect 62 0 63 0;
#X connect 63 0 69 0;
#X connect 64 0 65 0;
#X connect 65 0 63 1;
#X connect 66 0 65 1;
#X connect 66 0 69 1;
#X connect 67 0 66 0;
#X connect 68 0 67 0;
#X connect 69 0 70 0;
#X connect 70 0 71 0;
#X connect 71 0 87 1;
#X connect 72 0 71 1;
#X connect 73 0 28 0;
#X connect 74 0 24 0;
#X connect 75 0 35 0;
#X connect 76 0 39 0;
#X connect 77 0 46 0;
#X connect 78 0 50 0;
#X connect 79 0 129 0;
#X connect 80 0 72 0;
#X connect 81 0 57 0;
#X connect 82 0 68 0;
#X connect 83 0 84 0;
#X connect 84 0 85 0;
#X connect 85 0 126 0;
#X connect 86 0 84 1;
#X connect 87 0 85 1;
#X connect 89 0 90 0;
#X connect 90 0 92 1;
#X connect 91 0 92 0;
#X connect 92 0 93 0;
#X connect 93 0 94 0;
#X connect 95 0 93 1;
#X connect 96 0 130 0;
#X connect 96 0 97 0;
#X connect 98 0 96 0;
#X connect 98 0 99 0;
#X connect 98 0 132 0;
#X connect 101 0 119 0;
#X connect 101 0 96 0;
#X connect 101 0 100 0;
#X connect 102 0 120 0;
#X connect 102 0 96 0;
#X connect 102 0 116 0;
#X connect 103 0 121 0;
#X connect 103 0 96 0;
#X connect 103 0 117 0;
#X connect 104 0 122 0;
#X connect 104 0 96 0;
#X connect 104 0 118 0;
#X connect 105 0 98 0;
#X connect 105 1 101 0;
#X connect 105 2 102 0;
#X connect 105 3 103 0;
#X connect 105 4 104 0;
#X connect 105 5 108 0;
#X connect 108 0 106 0;
#X connect 108 0 107 0;
#X connect 109 0 105 0;
#X connect 110 0 111 0;
#X connect 110 0 112 1;
#X connect 111 0 109 0;
#X connect 112 0 110 0;
#X connect 113 0 112 1;
#X connect 114 0 113 0;
#X connect 114 0 108 0;
#X connect 115 0 114 0;
#X connect 115 0 133 0;
#X connect 123 0 88 1;
#X connect 123 0 88 0;
#X connect 124 0 90 1;
#X connect 125 0 12 0;
#X connect 126 0 123 0;
#X connect 127 0 128 0;
#X connect 128 0 126 1;
#X connect 129 0 61 0;
#X connect 130 0 95 0;
#X connect 131 0 1 0;
#X connect 133 0 112 0;
#X connect 134 0 108 0;
