#N canvas 528 93 579 723 12;
#X obj 78 500 rpole~;
#X obj 77 471 *~ 0.25;
#X obj 78 405 line~;
#X obj 77 370 pack f f;
#X floatatom 76 331 5 0 0 0 - - -;
#X obj 79 294 hsl 128 15 0 127 0 0 empty empty empty -2 -8 0 10 -262144
-1 -1 0 1;
#X obj 168 368 /;
#X floatatom 171 401 5 0 0 0 - - -;
#X obj 286 313 t b f;
#X obj 78 537 *~;
#X obj 77 576 *~;
#X obj 178 512 line~;
#X obj 178 484 pack f 50;
#X obj 308 389 vsl 15 128 0 127 0 0 empty empty empty 0 -9 0 10 -262144
-1 -1 7600 1;
#X obj 76 634 dac~;
#X floatatom 286 280 5 0 0 0 - - -;
#X obj 78 435 osc~;
#X connect 0 0 9 0;
#X connect 1 0 0 0;
#X connect 2 0 16 0;
#X connect 3 0 2 0;
#X connect 4 0 3 0;
#X connect 4 0 6 0;
#X connect 5 0 4 0;
#X connect 6 0 7 0;
#X connect 8 0 4 0;
#X connect 8 1 6 1;
#X connect 9 0 10 0;
#X connect 10 0 14 0;
#X connect 10 0 14 1;
#X connect 11 0 9 1;
#X connect 11 0 10 1;
#X connect 12 0 11 0;
#X connect 13 0 12 0;
#X connect 15 0 8 0;
#X connect 16 0 1 0;
