#N canvas 276 99 450 300 12;
#X obj 157 55 inlet;
#X obj 313 115 bng 15 250 50 0 empty empty empty 17 7 0 10 -262144
-1 -1;
#X obj 157 113 cyclone/midiparse;
#X obj 157 150 unpack;
#X floatatom 125 177 5 0 0 0 - - -;
#X floatatom 210 175 5 0 0 0 - - -;
#X obj 211 58 bng 15 250 50 0 empty empty empty 17 7 0 10 -262144 -1
-1;
#X obj 156 90 cyclone/seq harp.mid;
#X obj 124 211 outlet;
#X connect 0 0 7 0;
#X connect 2 0 3 0;
#X connect 3 0 4 0;
#X connect 3 1 5 0;
#X connect 4 0 8 0;
#X connect 6 0 7 0;
#X connect 7 0 2 0;
#X connect 7 1 1 0;
