#N canvas 693 66 662 344 12;
#X obj 523 70 inlet;
#X obj 476 71 inlet;
#X obj 429 71 inlet;
#X obj 384 71 inlet;
#X obj 384 100 tgl 15 0 empty empty empty 17 7 0 10 -262144 -1 -1 0
1;
#X obj 523 99 tgl 15 0 empty empty empty 17 7 0 10 -262144 -1 -1 0
1;
#X obj 429 100 tgl 15 0 empty empty empty 17 7 0 10 -262144 -1 -1 0
1;
#X obj 475 99 tgl 15 0 empty empty empty 17 7 0 10 -262144 -1 -1 1
1;
#X obj 378 142 spigot;
#X obj 432 141 spigot;
#X obj 487 140 spigot;
#X obj 543 139 spigot;
#X obj 314 70 inlet;
#X obj 493 175 outlet;
#X obj 549 173 outlet;
#X obj 435 177 outlet;
#X obj 376 175 outlet;
#X obj 252 70 inlet;
#X connect 0 0 5 0;
#X connect 1 0 7 0;
#X connect 2 0 6 0;
#X connect 3 0 4 0;
#X connect 4 0 8 1;
#X connect 5 0 11 1;
#X connect 6 0 9 1;
#X connect 7 0 10 1;
#X connect 8 0 16 0;
#X connect 9 0 15 0;
#X connect 10 0 13 0;
#X connect 11 0 14 0;
#X connect 12 0 8 0;
#X connect 12 0 9 0;
#X connect 12 0 11 0;
#X connect 17 0 10 0;
