#N canvas 546 70 894 617 12;
#X obj 69 113 sel 97 119 115 101 100 102 116 103 121 104 117 106 107
111 108 112 59 39;
#X msg 31 180 28;
#X msg 101 181 30;
#X msg 168 181 32;
#X msg 211 181 33;
#X msg 135 181 31;
#X msg 246 181 34;
#X msg 282 177 35;
#X msg 316 177 36;
#X msg 355 177 37;
#X msg 398 177 38;
#X msg 432 177 39;
#X msg 470 177 40;
#X msg 512 177 41;
#X msg 554 177 42;
#X msg 591 177 43;
#X msg 632 177 44;
#X msg 66 180 29;
#X msg 671 175 45;
#X floatatom 245 309 5 0 0 0 - - -;
#X obj 248 275 + 0;
#X obj 67 61 inlet;
#X floatatom 18 96 5 0 0 0 - - -;
#X obj 246 341 outlet;
#X text 69 41 inlet taking in key data;
#X text 457 93 array to select ASCII values;
#X text 707 176 convert to MIDI;
#X text 310 346 out to master;
#X connect 0 0 1 0;
#X connect 0 1 17 0;
#X connect 0 2 2 0;
#X connect 0 3 5 0;
#X connect 0 4 3 0;
#X connect 0 5 4 0;
#X connect 0 6 6 0;
#X connect 0 7 7 0;
#X connect 0 8 8 0;
#X connect 0 9 9 0;
#X connect 0 10 10 0;
#X connect 0 11 11 0;
#X connect 0 12 12 0;
#X connect 0 13 13 0;
#X connect 0 14 14 0;
#X connect 0 15 15 0;
#X connect 0 16 16 0;
#X connect 0 17 18 0;
#X connect 1 0 20 0;
#X connect 2 0 20 0;
#X connect 3 0 20 0;
#X connect 4 0 20 0;
#X connect 5 0 20 0;
#X connect 6 0 20 0;
#X connect 7 0 20 0;
#X connect 8 0 20 0;
#X connect 9 0 20 0;
#X connect 10 0 20 0;
#X connect 11 0 20 0;
#X connect 12 0 20 0;
#X connect 13 0 20 0;
#X connect 14 0 20 0;
#X connect 15 0 20 0;
#X connect 16 0 20 0;
#X connect 17 0 20 0;
#X connect 18 0 20 0;
#X connect 19 0 23 0;
#X connect 20 0 19 0;
#X connect 21 0 22 0;
#X connect 21 0 0 0;
