#N canvas 0 25 1440 794 12;
#X obj 1087 284 r~ vibrato;
#X obj 1083 318 *~;
#X obj 1087 350 osc~;
#X obj 1088 379 s~ modular;
#X obj 1156 239 bng 15 250 50 0 empty empty empty 17 7 0 10 -262144
-1 -1;
#X obj 949 388 *~ 0.8;
#X obj 1034 160 key_selector;
#X obj 1174 160 AEIOU_Selection;
#X floatatom 1174 186 5 0 0 0 - - -;
#X obj 1173 214 vowel_synthesis;
#X obj 1156 261 noise_generation;
#X obj 992 284 formants;
#X obj 1324 179 tgl 15 0 empty empty empty 17 7 0 10 -262144 -1 -1
0 1;
#X obj 905 435 *~;
#X obj 889 189 sustain;
#X obj 906 267 vline~;
#X obj 1019 228 octaves;
#X floatatom 607 187 5 0 0 0 - - -;
#X obj 731 27 inlet;
#X obj 903 471 outlet~;
#X obj 574 75 inlet;
#X obj 825 229 mtof;
#X floatatom 575 105 5 0 0 0 - - -;
#X obj 576 146 expr $f1-25;
#X floatatom 689 70 5 0 0 0 - - -;
#X obj 1187 69 loadbang;
#X msg 1186 103 1;
#X obj 1326 147 inlet;
#X connect 0 0 1 0;
#X connect 1 0 2 0;
#X connect 2 0 3 0;
#X connect 4 0 10 0;
#X connect 5 0 13 0;
#X connect 6 0 9 0;
#X connect 6 0 16 0;
#X connect 6 0 14 1;
#X connect 7 0 8 0;
#X connect 8 0 9 1;
#X connect 9 0 4 0;
#X connect 11 0 5 0;
#X connect 12 0 9 2;
#X connect 13 0 19 0;
#X connect 14 0 15 0;
#X connect 15 0 13 1;
#X connect 16 0 1 0;
#X connect 16 0 11 0;
#X connect 17 0 14 1;
#X connect 17 0 21 0;
#X connect 17 0 16 1;
#X connect 18 0 6 0;
#X connect 18 0 7 0;
#X connect 18 0 16 1;
#X connect 18 0 24 0;
#X connect 18 0 14 0;
#X connect 20 0 22 0;
#X connect 21 0 11 0;
#X connect 22 0 23 0;
#X connect 23 0 17 0;
#X connect 25 0 26 0;
#X connect 26 0 8 0;
#X connect 27 0 12 0;
