#N canvas 56 164 450 300 12;
#X obj 160 145 clarinet;
#X obj 135 87 inlet;
#X obj 193 85 inlet;
#X obj 241 82 inlet;
#X obj 157 177 outlet~;
#X connect 0 0 4 0;
#X connect 1 0 0 0;
#X connect 2 0 0 1;
#X connect 3 0 0 2;
