#N canvas 542 93 1011 752 12;
#X obj 185 339 sel 0 1 2 3 4 5;
#X obj 185 308 % 7;
#X obj 184 260 + 1, f 4;
#X floatatom 184 284 5 0 0 0 - - -;
#X obj 183 230 f 0;
#X msg 247 256 6;
#X obj 233 285 sel 0;
#X obj 182 158 tgl 15 0 empty empty empty 17 7 0 10 -262144 -1 -1 1
1;
#X obj 163 379 s m0;
#X obj 208 379 s m1;
#X obj 252 380 s m2;
#X obj 294 380 s m3;
#X obj 337 381 s m4;
#X obj 388 383 s m5;
#X obj 184 115 inlet;
#X obj 181 196 metro 500;
#X connect 0 0 8 0;
#X connect 0 1 9 0;
#X connect 0 2 10 0;
#X connect 0 3 11 0;
#X connect 0 4 12 0;
#X connect 0 5 13 0;
#X connect 1 0 0 0;
#X connect 2 0 3 0;
#X connect 2 0 4 1;
#X connect 3 0 1 0;
#X connect 4 0 2 0;
#X connect 5 0 4 1;
#X connect 6 0 5 0;
#X connect 7 0 6 0;
#X connect 7 0 15 0;
#X connect 14 0 7 0;
#X connect 15 0 4 0;
