#N canvas 601 56 839 607 12;
#X obj 104 31 inlet;
#X obj 102 77 mtof;
#X floatatom 92 109 5 0 0 0 - - -;
#X obj 279 136 bng 15 250 50 0 empty empty empty 17 7 0 10 -262144
-1 -1;
#X obj 14 198 expr $f1*1;
#X obj 98 196 expr $f1*2;
#X obj 180 193 expr $f1*3;
#X obj 267 193 expr $f1*4;
#X obj 359 192 expr $f1*5;
#X obj 449 191 expr $f1*6;
#X floatatom 14 222 5 0 0 0 - - -;
#X floatatom 98 220 5 0 0 0 - - -;
#X floatatom 180 223 5 0 0 0 - - -;
#X floatatom 267 222 5 0 0 0 - - -;
#X floatatom 357 222 5 0 0 0 - - -;
#X floatatom 447 226 5 0 0 0 - - -;
#X msg 348 109 0 0;
#X obj 63 312 osc~;
#X obj 302 314 osc~;
#X obj 108 312 osc~;
#X obj 160 319 osc~;
#X obj 212 314 osc~;
#X obj 254 314 osc~;
#X obj 383 322 vline~;
#X obj 685 311 vline~;
#X obj 631 315 vline~;
#X obj 449 319 vline~;
#X obj 507 320 vline~;
#X obj 572 317 vline~;
#X obj 163 394 *~;
#X obj 234 388 *~;
#X obj 321 388 *~;
#X obj 404 381 *~;
#X obj 483 382 *~;
#X obj 568 381 *~;
#X obj 336 466 outlet~;
#X obj 337 42 inlet;
#X obj 346 77 bng 15 250 50 0 empty empty empty 17 7 0 10 -262144 -1
-1;
#X msg 14 271 1 1 \, 0 300 100;
#X msg 126 271 1 10 \, 0 300 100;
#X msg 261 273 1 5 \, 0 300 100;
#X msg 383 273 1 1.66667 \, 0 300 100;
#X msg 559 270 1 0.41667 \, 0 300 100;
#X msg 727 268 1 0.0833333 \, 0 300 100;
#X obj 84 136 expr $f1/8;
#X connect 0 0 1 0;
#X connect 1 0 2 0;
#X connect 2 0 3 0;
#X connect 2 0 44 0;
#X connect 3 0 38 0;
#X connect 3 0 39 0;
#X connect 3 0 40 0;
#X connect 3 0 41 0;
#X connect 3 0 42 0;
#X connect 3 0 43 0;
#X connect 4 0 10 0;
#X connect 5 0 11 0;
#X connect 6 0 12 0;
#X connect 7 0 13 0;
#X connect 8 0 14 0;
#X connect 9 0 15 0;
#X connect 10 0 17 0;
#X connect 11 0 19 0;
#X connect 12 0 20 0;
#X connect 13 0 21 0;
#X connect 14 0 22 0;
#X connect 15 0 18 0;
#X connect 16 0 23 0;
#X connect 16 0 26 0;
#X connect 16 0 27 0;
#X connect 16 0 28 0;
#X connect 16 0 25 0;
#X connect 16 0 24 0;
#X connect 17 0 29 0;
#X connect 18 0 34 0;
#X connect 19 0 30 0;
#X connect 20 0 31 0;
#X connect 21 0 32 0;
#X connect 22 0 33 0;
#X connect 23 0 29 1;
#X connect 24 0 34 1;
#X connect 25 0 33 1;
#X connect 26 0 30 1;
#X connect 27 0 31 1;
#X connect 28 0 32 1;
#X connect 29 0 35 0;
#X connect 30 0 35 0;
#X connect 31 0 35 0;
#X connect 32 0 35 0;
#X connect 33 0 35 0;
#X connect 34 0 35 0;
#X connect 36 0 37 0;
#X connect 37 0 16 0;
#X connect 38 0 23 0;
#X connect 39 0 26 0;
#X connect 40 0 27 0;
#X connect 41 0 28 0;
#X connect 42 0 25 0;
#X connect 43 0 24 0;
#X connect 44 0 4 0;
#X connect 44 0 5 0;
#X connect 44 0 6 0;
#X connect 44 0 7 0;
#X connect 44 0 8 0;
#X connect 44 0 9 0;
