#N canvas 254 246 1099 695 12;
#X floatatom 234 28 5 0 0 0 - - -;
#X floatatom 223 418 5 0 5 0 - - -;
#X msg 585 483 1 1 \, 0 500 500;
#X obj 629 307 bng 15 250 50 0 empty empty empty 17 7 0 10 -262144
-1 -1;
#X msg -3 490 1 1 \, 0 500 0;
#X msg 104 489 1 1 \, 0 500 100;
#X msg 225 489 1 1 \, 0 500 200;
#X msg 345 485 1 1 \, 0 500 300;
#X msg 465 482 1 1 \, 0 500 400;
#X floatatom 554 624 5 0 0 0 - - -;
#X obj 434 584 == 4;
#X obj 304 581 == 3;
#X obj 200 577 == 2;
#X obj 124 577 == 1;
#X floatatom 435 626 5 0 0 0 - - -;
#X floatatom 304 622 5 0 0 0 - - -;
#X floatatom 198 619 5 0 0 0 - - -;
#X floatatom 120 620 5 0 0 0 - - -;
#X floatatom 60 623 5 0 0 0 - - -;
#X obj 62 576 == 0;
#X obj 553 585 == 5;
#X obj 56 666 spigot;
#X obj 119 664 spigot;
#X obj 198 659 spigot;
#X obj 305 659 spigot;
#X obj 435 661 spigot;
#X obj 554 658 spigot;
#X floatatom 628 622 5 0 0 0 - - -;
#X obj 628 656 spigot;
#X obj 627 583 == 6;
#X floatatom 694 621 5 0 0 0 - - -;
#X obj 694 655 spigot;
#X obj 693 582 == 7;
#X floatatom 768 619 5 0 0 0 - - -;
#X obj 768 653 spigot;
#X obj 767 580 == 8;
#X floatatom 837 618 5 0 0 0 - - -;
#X obj 837 652 spigot;
#X obj 836 579 == 9;
#X msg 712 483 1 1 \, 0 500 600;
#X floatatom 909 617 5 0 0 0 - - -;
#X obj 909 651 spigot;
#X obj 908 577 == 10;
#X msg 834 442 1 1 \, 0 500 700;
#X msg 835 483 1 1 \, 0 500 800;
#X msg 836 517 1 1 \, 0 500 900;
#X msg 840 545 1 1 \, 0 500 1000;
#X msg 364 216 38;
#X obj 442 173 loadbang;
#X floatatom 433 299 5 0 0 0 - - -;
#X obj 436 330 spigot;
#X msg 502 283 1 1 \, 0 500 1e+06;
#X obj 434 275 == 38;
#X obj 233 -3 inlet;
#X obj 656 267 inlet;
#X obj 429 719 outlet;
#X msg 412 215 5;
#X obj 223 246 +;
#X msg 271 193 1;
#X msg 196 191 -1;
#X floatatom 221 275 5 0 0 0 - - -;
#X msg 288 267 9;
#X obj 230 80 sel 45 61 8;
#X obj 227 120 bng 15 250 50 0 empty empty empty 17 7 0 10 -262144
-1 -1;
#X obj 256 117 bng 15 250 50 0 empty empty empty 17 7 0 10 -262144
-1 -1;
#X obj 281 115 bng 15 250 50 0 empty empty empty 17 7 0 10 -262144
-1 -1;
#X obj 206 318 expr abs($f1%11);
#X connect 0 0 62 0;
#X connect 1 0 13 0;
#X connect 1 0 12 0;
#X connect 1 0 11 0;
#X connect 1 0 10 0;
#X connect 1 0 19 0;
#X connect 1 0 20 0;
#X connect 1 0 29 0;
#X connect 1 0 32 0;
#X connect 1 0 35 0;
#X connect 1 0 38 0;
#X connect 1 0 42 0;
#X connect 1 0 52 0;
#X connect 2 0 26 0;
#X connect 3 0 4 0;
#X connect 3 0 5 0;
#X connect 3 0 6 0;
#X connect 3 0 7 0;
#X connect 3 0 8 0;
#X connect 3 0 2 0;
#X connect 3 0 39 0;
#X connect 3 0 43 0;
#X connect 3 0 44 0;
#X connect 3 0 45 0;
#X connect 3 0 46 0;
#X connect 3 0 51 0;
#X connect 4 0 21 0;
#X connect 5 0 22 0;
#X connect 6 0 23 0;
#X connect 7 0 24 0;
#X connect 8 0 25 0;
#X connect 9 0 26 1;
#X connect 10 0 14 0;
#X connect 11 0 15 0;
#X connect 12 0 16 0;
#X connect 13 0 17 0;
#X connect 14 0 25 1;
#X connect 15 0 24 1;
#X connect 16 0 23 1;
#X connect 17 0 22 1;
#X connect 18 0 21 1;
#X connect 19 0 18 0;
#X connect 20 0 9 0;
#X connect 21 0 55 0;
#X connect 22 0 55 0;
#X connect 23 0 55 0;
#X connect 24 0 55 0;
#X connect 25 0 55 0;
#X connect 26 0 55 0;
#X connect 27 0 28 1;
#X connect 28 0 55 0;
#X connect 29 0 27 0;
#X connect 30 0 31 1;
#X connect 31 0 55 0;
#X connect 32 0 30 0;
#X connect 33 0 34 1;
#X connect 34 0 55 0;
#X connect 35 0 33 0;
#X connect 36 0 37 1;
#X connect 37 0 55 0;
#X connect 38 0 36 0;
#X connect 39 0 28 0;
#X connect 40 0 41 1;
#X connect 41 0 55 0;
#X connect 42 0 40 0;
#X connect 43 0 31 0;
#X connect 44 0 34 0;
#X connect 45 0 37 0;
#X connect 46 0 41 0;
#X connect 47 0 1 0;
#X connect 48 0 56 0;
#X connect 48 0 61 0;
#X connect 49 0 50 1;
#X connect 50 0 55 0;
#X connect 51 0 50 0;
#X connect 52 0 49 0;
#X connect 53 0 0 0;
#X connect 54 0 3 0;
#X connect 56 0 1 0;
#X connect 57 0 60 0;
#X connect 58 0 57 0;
#X connect 59 0 57 0;
#X connect 60 0 57 1;
#X connect 60 0 66 0;
#X connect 62 0 63 0;
#X connect 62 1 64 0;
#X connect 62 2 65 0;
#X connect 63 0 59 0;
#X connect 64 0 58 0;
#X connect 65 0 47 0;
#X connect 66 0 1 0;
