#N canvas 148 484 1260 603 12;
#X obj 52 84 r~ vibrato;
#X obj 53 180 +~;
#X obj 88 108 r~ modular;
#X obj 88 143 *~;
#X floatatom 124 190 5 0 0 0 - - -;
#X obj 156 163 *;
#X obj 83 241 +~;
#X obj 83 279 osc~;
#X obj 108 334 *~;
#X obj 137 279 line;
#X obj 136 249 r f1amp;
#X obj 231 113 r~ vibrato;
#X obj 232 209 +~;
#X obj 267 137 r~ modular;
#X obj 267 172 *~;
#X floatatom 299 212 5 0 0 0 - - -;
#X obj 298 178 *;
#X obj 262 270 +~;
#X obj 262 308 osc~;
#X obj 262 340 *~;
#X obj 316 308 line;
#X obj 406 112 r~ vibrato;
#X obj 407 208 +~;
#X obj 442 136 r~ modular;
#X obj 442 171 *~;
#X floatatom 477 214 5 0 0 0 - - -;
#X obj 473 177 *;
#X obj 437 269 +~;
#X obj 437 307 osc~;
#X obj 437 339 *~;
#X obj 491 307 line;
#X obj 577 104 r~ vibrato;
#X obj 578 200 +~;
#X obj 613 128 r~ modular;
#X obj 613 163 *~;
#X floatatom 645 203 5 0 0 0 - - -;
#X obj 645 166 *;
#X obj 608 261 +~;
#X obj 608 299 osc~;
#X obj 608 331 *~;
#X obj 662 299 line;
#X obj 752 105 r~ vibrato;
#X obj 753 201 +~;
#X obj 788 129 r~ modular;
#X obj 788 164 *~;
#X floatatom 820 204 5 0 0 0 - - -;
#X obj 820 165 *;
#X obj 783 262 +~;
#X obj 783 300 osc~;
#X obj 783 332 *~;
#X obj 837 300 line;
#X obj 916 101 r~ vibrato;
#X obj 917 197 +~;
#X obj 952 125 r~ modular;
#X obj 952 160 *~;
#X floatatom 984 200 5 0 0 0 - - -;
#X obj 983 166 *;
#X obj 947 258 +~;
#X obj 947 296 osc~;
#X obj 947 328 *~;
#X obj 1001 296 line;
#X obj 315 278 r f2amp;
#X obj 379 28 r f2;
#X obj 519 39 r f3;
#X obj 490 277 r f3amp;
#X obj 690 29 r f4;
#X obj 661 269 r f4amp;
#X obj 836 251 r f5amp;
#X obj 999 266 r f6amp;
#X obj 894 11 r f5;
#X obj 1074 11 r f6;
#X obj 174 384 +~;
#X obj 174 419 +~;
#X obj 174 445 +~;
#X obj 476 389 +~;
#X obj 855 411 +~;
#X obj 168 33 r f1;
#X obj 835 277 nbx 5 14 -1e+37 1e+37 0 0 empty empty empty 0 -8 0 10
-262144 -1 -1 0.07 256;
#X obj 173 481 outlet~;
#X obj 310 2 inlet;
#X floatatom 310 35 5 0 0 0 - - -;
#X floatatom 179 81 5 0 0 0 - - -;
#X floatatom 336 89 5 0 0 0 - - -;
#X floatatom 517 73 5 0 0 0 - - -;
#X floatatom 690 85 5 0 0 0 - - -;
#X floatatom 866 84 5 0 0 0 - - -;
#X floatatom 1067 64 5 0 0 0 - - -;
#X obj 262 53 bng 15 250 50 0 empty empty empty 17 7 0 10 -262144 -1
-1;
#X connect 0 0 1 0;
#X connect 1 0 6 0;
#X connect 2 0 3 0;
#X connect 3 0 1 1;
#X connect 4 0 3 1;
#X connect 4 0 6 1;
#X connect 5 0 4 0;
#X connect 6 0 7 0;
#X connect 7 0 8 0;
#X connect 8 0 71 0;
#X connect 9 0 8 1;
#X connect 10 0 9 0;
#X connect 11 0 12 0;
#X connect 12 0 17 0;
#X connect 13 0 14 0;
#X connect 14 0 12 1;
#X connect 15 0 14 1;
#X connect 15 0 17 1;
#X connect 16 0 15 0;
#X connect 17 0 18 0;
#X connect 18 0 19 0;
#X connect 19 0 71 1;
#X connect 20 0 19 1;
#X connect 21 0 22 0;
#X connect 22 0 27 0;
#X connect 23 0 24 0;
#X connect 24 0 22 1;
#X connect 25 0 24 1;
#X connect 25 0 27 1;
#X connect 26 0 25 0;
#X connect 27 0 28 0;
#X connect 28 0 29 0;
#X connect 29 0 74 0;
#X connect 30 0 29 1;
#X connect 31 0 32 0;
#X connect 32 0 37 0;
#X connect 33 0 34 0;
#X connect 34 0 32 1;
#X connect 35 0 34 1;
#X connect 35 0 37 1;
#X connect 36 0 35 0;
#X connect 37 0 38 0;
#X connect 38 0 39 0;
#X connect 39 0 74 1;
#X connect 40 0 39 1;
#X connect 41 0 42 0;
#X connect 42 0 47 0;
#X connect 43 0 44 0;
#X connect 44 0 42 1;
#X connect 45 0 44 1;
#X connect 45 0 47 1;
#X connect 46 0 45 0;
#X connect 47 0 48 0;
#X connect 48 0 49 0;
#X connect 49 0 75 0;
#X connect 50 0 49 1;
#X connect 51 0 52 0;
#X connect 52 0 57 0;
#X connect 53 0 54 0;
#X connect 54 0 52 1;
#X connect 55 0 54 1;
#X connect 55 0 57 1;
#X connect 56 0 55 0;
#X connect 57 0 58 0;
#X connect 58 0 59 0;
#X connect 59 0 75 1;
#X connect 60 0 59 1;
#X connect 61 0 20 0;
#X connect 62 0 82 0;
#X connect 63 0 83 0;
#X connect 64 0 30 0;
#X connect 65 0 84 0;
#X connect 66 0 40 0;
#X connect 67 0 77 0;
#X connect 68 0 60 0;
#X connect 69 0 85 0;
#X connect 70 0 86 0;
#X connect 71 0 72 0;
#X connect 72 0 73 0;
#X connect 73 0 78 0;
#X connect 74 0 72 1;
#X connect 75 0 73 1;
#X connect 76 0 81 0;
#X connect 77 0 50 0;
#X connect 79 0 80 0;
#X connect 80 0 5 1;
#X connect 80 0 16 1;
#X connect 80 0 26 1;
#X connect 80 0 36 1;
#X connect 80 0 46 1;
#X connect 80 0 56 1;
#X connect 80 0 87 0;
#X connect 81 0 5 0;
#X connect 82 0 16 0;
#X connect 83 0 26 0;
#X connect 84 0 36 0;
#X connect 85 0 46 0;
#X connect 86 0 56 0;
#X connect 87 0 81 0;
#X connect 87 0 82 0;
#X connect 87 0 83 0;
#X connect 87 0 84 0;
#X connect 87 0 85 0;
#X connect 87 0 86 0;
