#N canvas 144 55 1440 847 12;
#X obj 1087 284 r~ vibrato;
#X obj 1083 318 *~;
#X obj 1087 350 osc~;
#X obj 1088 379 s~ modular;
#X obj 891 484 dac~, f 6;
#X obj 1156 239 bng 15 250 50 0 empty empty empty 17 7 0 10 -262144
-1 -1;
#X obj 949 388 *~ 0.8;
#X obj 975 329 lop~;
#X obj 1070 444 hsl 128 15 10 1000 1 0 empty empty empty -2 -8 0 10
-262144 -1 -1 5600 1;
#X floatatom 1066 473 5 0 0 0 - - -;
#X obj 1044 129 key;
#X obj 1034 160 key_selector;
#X obj 1174 160 AEIOU_Selection;
#X floatatom 1174 186 5 0 0 0 - - -;
#X obj 1173 214 vowel_synthesis;
#X obj 1156 261 noise_generation;
#X obj 992 284 formants;
#X obj 1324 179 tgl 15 0 empty empty empty 17 7 0 10 -262144 -1 -1
0 1;
#X obj 905 435 *~;
#X obj 909 193 sustain;
#X obj 906 267 vline~;
#X obj 1019 228 octaves;
#X floatatom 970 250 5 0 0 0 - - -;
#X connect 0 0 1 0;
#X connect 1 0 2 0;
#X connect 2 0 3 0;
#X connect 5 0 15 0;
#X connect 6 0 18 0;
#X connect 7 0 6 0;
#X connect 8 0 9 0;
#X connect 9 0 7 1;
#X connect 10 0 11 0;
#X connect 10 0 12 0;
#X connect 10 0 19 0;
#X connect 10 0 21 1;
#X connect 11 0 14 0;
#X connect 11 0 19 1;
#X connect 11 0 21 0;
#X connect 12 0 13 0;
#X connect 13 0 14 1;
#X connect 14 0 5 0;
#X connect 16 0 7 0;
#X connect 17 0 14 2;
#X connect 18 0 4 0;
#X connect 18 0 4 1;
#X connect 19 0 20 0;
#X connect 20 0 18 1;
#X connect 21 0 1 0;
#X connect 21 0 22 0;
#X connect 22 0 16 0;
