#N canvas 163 25 450 300 12;
#X obj 119 21 noise~;
#X obj 121 79 samphold~;
#X obj 50 23 osc~ 2;
#X obj 50 77 +~;
#X obj 50 108 *~ 2;
#X obj 52 147 s~ vibrato;
#X obj 150 128 line;
#X obj 191 25 phasor~ 25;
#X msg 224 99 0 \, 2 100;
#X obj 222 63 inlet;
#X connect 0 0 1 0;
#X connect 1 0 3 1;
#X connect 2 0 3 0;
#X connect 3 0 4 0;
#X connect 4 0 5 0;
#X connect 6 0 4 1;
#X connect 7 0 1 1;
#X connect 8 0 6 0;
#X connect 9 0 8 0;
