#N canvas 422 25 697 684 12;
#X floatatom 204 515 5 0 0 0 - - -;
#X obj 112 408 mtof;
#X obj 203 460 expr $f1*$f2;
#X floatatom 214 280 5 0 0 0 - - -;
#X floatatom 238 383 5 0 0 0 - - -;
#X obj 204 57 sel 44 46;
#X floatatom 201 26 5 0 0 0 - - -;
#X obj 201 86 bng 15 250 50 0 empty empty empty 17 7 0 10 -262144 -1
-1;
#X obj 230 85 bng 15 250 50 0 empty empty empty 17 7 0 10 -262144 -1
-1;
#X obj 323 20 loadbang;
#X msg 178 346 0.5;
#X msg 224 347 1;
#X msg 263 347 2;
#X msg 304 346 4;
#X msg 347 345 8;
#X floatatom 208 208 5 0 0 0 - - -;
#X msg 338 57 1;
#X obj 209 169 +;
#X msg 189 121 -1;
#X msg 235 121 1;
#X obj 214 309 sel 0 1 2 3 4;
#X obj 208 242 expr $f1%5;
#X obj 102 367 inlet;
#X obj 198 -1 inlet;
#X obj 205 571 outlet;
#X connect 0 0 24 0;
#X connect 1 0 2 0;
#X connect 2 0 0 0;
#X connect 3 0 20 0;
#X connect 4 0 2 1;
#X connect 5 0 7 0;
#X connect 5 1 8 0;
#X connect 6 0 5 0;
#X connect 7 0 18 0;
#X connect 8 0 19 0;
#X connect 9 0 16 0;
#X connect 10 0 4 0;
#X connect 11 0 4 0;
#X connect 12 0 4 0;
#X connect 13 0 4 0;
#X connect 14 0 4 0;
#X connect 15 0 17 1;
#X connect 15 0 21 0;
#X connect 16 0 15 0;
#X connect 17 0 15 0;
#X connect 18 0 17 0;
#X connect 19 0 17 0;
#X connect 20 0 10 0;
#X connect 20 1 11 0;
#X connect 20 2 12 0;
#X connect 20 3 13 0;
#X connect 20 4 14 0;
#X connect 21 0 3 0;
#X connect 22 0 1 0;
#X connect 23 0 6 0;
