#N canvas -49 424 1440 664 12;
#X obj 132 289 bng 15 250 50 0 empty empty empty 17 7 0 10 -262144
-1 -1;
#X msg 162 320 \; f1amp 0.19 \; f2amp 0.09 \; f3amp 0.08 \; f4amp 0.08
\; f5amp 0.07 \; f6amp 0.07 \;;
#X msg 281 313 \; f1 1 \; f2 2 \; f3 11 \; f4 13 \; f5 12 \; f6 0 \;
;
#X obj 348 290 bng 15 250 50 0 empty empty empty 17 7 0 10 -262144
-1 -1;
#X obj 585 288 bng 15 250 50 0 empty empty empty 17 7 0 10 -262144
-1 -1;
#X obj 804 276 bng 15 250 50 0 empty empty empty 17 7 0 10 -262144
-1 -1;
#X obj 1027 266 bng 15 250 50 0 empty empty empty 17 7 0 10 -262144
-1 -1;
#X msg 1198 280 \; f1 0 \; f2 0 \; f3 0 \; f4 0 \; f5 0 \; f6 0 \;
;
#X msg 1295 281 \; f1amp 0 \; f2amp 0 \; f3amp 0 \; f4amp 0 \; f5amp
0 \; f6amp 0 \;;
#X obj 1265 264 bng 15 250 50 0 empty empty empty 17 7 0 10 -262144
-1 -1;
#X msg 516 308 \; f1 1 \; f2 6 \; f3 2 \; f4 5 \; f5 4 \; f6 0 \;;
#X msg 736 305 \; f1 1 \; f2 2 \; f3 3 \; f4 11 \; f5 4 \; f6 0 \;
;
#X msg 961 288 \; f1 4 \; f2 2 \; f3 1 \; f4 3 \; f5 0 \; f6 0 \;;
#X msg 378 315 \; f1amp 0.19 \; f2amp 0.09 \; f3amp 0.08 \; f4amp 0.08
\; f5amp 0.07 \; f6amp 0 \;;
#X msg 613 310 \; f1amp 0.19 \; f2amp 0.09 \; f3amp 0.08 \; f4amp 0.08
\; f5amp 0.08 \; f6amp 0 \;;
#X msg 833 307 \; f1amp 0.19 \; f2amp 0.09 \; f3amp 0.08 \; f4amp 0.08
\; f5amp 0.07 \; f6amp 0 \;;
#X msg 1058 290 \; f1amp 0.19 \; f2amp 0.09 \; f3amp 0.08 \; f4amp
0.08 \; f5amp 0 \; f6amp 0 \;;
#X msg 70 311 \; f1 2 \; f2 1 \; f3 1 \; f4 2 \; f5 1 \; f6 3 \;;
#X obj 633 282 outlet;
#X obj 641 8 inlet;
#X floatatom 639 33 5 0 0 0 - - -;
#X obj 328 73 bng 15 250 50 0 empty empty empty 17 7 0 10 -262144 -1
-1;
#X obj 1025 237 spigot;
#X obj 804 243 spigot;
#X obj 585 254 spigot;
#X obj 343 257 spigot;
#X obj 139 257 spigot;
#X obj 246 240 tgl 15 0 empty empty empty 17 7 0 10 -262144 -1 -1 0
1;
#X obj 1069 214 tgl 15 0 empty empty empty 17 7 0 10 -262144 -1 -1
0 1;
#X obj 845 217 tgl 15 0 empty empty empty 17 7 0 10 -262144 -1 -1 0
1;
#X obj 632 230 tgl 15 0 empty empty empty 17 7 0 10 -262144 -1 -1 0
1;
#X obj 390 234 tgl 15 0 empty empty empty 17 7 0 10 -262144 -1 -1 0
1;
#X obj 510 78 == 1;
#X obj 557 79 == 2;
#X obj 610 80 == 3;
#X obj 664 80 == 4;
#X obj 711 78 == 5;
#X obj 762 78 == 0;
#X floatatom 505 109 5 0 0 0 - - -;
#X floatatom 554 114 5 0 0 0 - - -;
#X floatatom 606 113 5 0 0 0 - - -;
#X floatatom 661 114 5 0 0 0 - - -;
#X floatatom 714 114 5 0 0 0 - - -;
#X floatatom 763 115 5 0 0 0 - - -;
#X obj 1290 205 tgl 15 0 empty empty empty 17 7 0 10 -262144 -1 -1
1 1;
#X obj 1259 235 spigot;
#X obj 328 21 inlet;
#X obj 884 69 metro_control;
#X obj 884 34 tgl 15 0 empty empty empty 17 7 0 10 -262144 -1 -1 0
1;
#X obj 89 245 r m0;
#X obj 292 250 r m1;
#X obj 533 254 r m2;
#X obj 753 250 r m3;
#X obj 975 240 r m4;
#X obj 1211 236 r m5;
#X obj 1287 158 loadbang;
#X obj 883 4 inlet;
#X connect 0 0 1 0;
#X connect 0 0 17 0;
#X connect 0 0 18 0;
#X connect 3 0 13 0;
#X connect 3 0 2 0;
#X connect 3 0 18 0;
#X connect 4 0 14 0;
#X connect 4 0 10 0;
#X connect 4 0 18 0;
#X connect 5 0 15 0;
#X connect 5 0 11 0;
#X connect 5 0 18 0;
#X connect 6 0 16 0;
#X connect 6 0 12 0;
#X connect 6 0 18 0;
#X connect 9 0 7 0;
#X connect 9 0 8 0;
#X connect 9 0 18 0;
#X connect 19 0 20 0;
#X connect 20 0 32 0;
#X connect 20 0 33 0;
#X connect 20 0 34 0;
#X connect 20 0 35 0;
#X connect 20 0 36 0;
#X connect 20 0 37 0;
#X connect 21 0 26 0;
#X connect 21 0 25 0;
#X connect 21 0 24 0;
#X connect 21 0 23 0;
#X connect 21 0 22 0;
#X connect 22 0 6 0;
#X connect 23 0 5 0;
#X connect 24 0 4 0;
#X connect 25 0 3 0;
#X connect 26 0 0 0;
#X connect 27 0 26 1;
#X connect 28 0 22 1;
#X connect 29 0 23 1;
#X connect 30 0 24 1;
#X connect 31 0 25 1;
#X connect 32 0 38 0;
#X connect 33 0 39 0;
#X connect 34 0 40 0;
#X connect 35 0 41 0;
#X connect 36 0 42 0;
#X connect 37 0 43 0;
#X connect 38 0 27 0;
#X connect 39 0 31 0;
#X connect 40 0 30 0;
#X connect 41 0 29 0;
#X connect 42 0 28 0;
#X connect 43 0 44 0;
#X connect 43 0 45 0;
#X connect 44 0 45 1;
#X connect 45 0 9 0;
#X connect 46 0 21 0;
#X connect 48 0 47 0;
#X connect 49 0 0 0;
#X connect 50 0 3 0;
#X connect 51 0 4 0;
#X connect 52 0 5 0;
#X connect 53 0 6 0;
#X connect 54 0 9 0;
#X connect 55 0 44 0;
#X connect 56 0 48 0;
